<svg viewBox="0 0 1024 1024" fill="none" xmlns="http://www.w3.org/2000/svg">
  <defs>
    <linearGradient id="vgrad" x1="512" y1="40" x2="512" y2="984" gradientUnits="userSpaceOnUse">
      <stop offset="0%" stop-color="#dbeafe"/>
      <stop offset="38%" stop-color="#93c5fd"/>
      <stop offset="100%" stop-color="#1d4ed8"/>
    </linearGradient>
    <linearGradient id="hgrad" x1="40" y1="512" x2="984" y2="512" gradientUnits="userSpaceOnUse">
      <stop offset="0%" stop-color="#1e3a8a"/>
      <stop offset="50%" stop-color="#3b82f6"/>
      <stop offset="100%" stop-color="#1e40af"/>
    </linearGradient>
  </defs>

  <!-- Vertical petal -->
  <path d="
    M 512 40
    C 512 40,  578 318,  578 512
    C 578 706, 512 984, 512 984
    C 512 984,  446 706,  446 512
    C 446 318, 512  40, 512  40
    Z
  " fill="url(#vgrad)"/>

  <!-- Horizontal petal -->
  <path d="
    M 40 512
    C 40 512,  318 558,  512 558
    C 706 558, 984 512, 984 512
    C 984 512, 706 466, 512 466
    C 318 466,  40 512,  40 512
    Z
  " fill="url(#hgrad)" opacity="0.72"/>
</svg>
